<svg xmlns="http://www.w3.org/2000/svg" width="21" height="21" viewBox="0 0 21 21"><g id="instagram" transform="translate(0.002 -0.428)"><path id="&#x41A;&#x43E;&#x43D;&#x442;&#x443;&#x440;_6513" data-name="&#x41A;&#x43E;&#x43D;&#x442;&#x443;&#x440; 6513" d="M15,.428H6c-3.129,0-6,1.871-6,5v10a6.253,6.253,0,0,0,6,6h9a6.254,6.254,0,0,0,6-6v-10C21,2.3,18.127.428,15,.428Zm5,15c0,2.451-2.549,4-5,4H6c-2.451,0-5-1.549-5-4v-10c0-2.451,2.549-4,5-4h9c2.451,0,5,1.549,5,4Zm0,0" fill="#9f9f9f"></path><path id="&#x41A;&#x43E;&#x43D;&#x442;&#x443;&#x440;_6514" data-name="&#x41A;&#x43E;&#x43D;&#x442;&#x443;&#x440; 6514" d="M121.253,115.683c-3.161,0-5,2.839-5,6s1.839,6,5,6a6,6,0,0,0,0-12Zm0,11c-2.483,0-4-2.517-4-5a3.7,3.7,0,0,1,4-4c2.483,0,5,1.517,5,4A5.4,5.4,0,0,1,121.253,126.683Zm0,0" transform="translate(-111.255 -111.254)" fill="#9f9f9f"></path><path id="&#x41A;&#x43E;&#x43D;&#x442;&#x443;&#x440;_6515" data-name="&#x41A;&#x43E;&#x43D;&#x442;&#x443;&#x440; 6515" d="M359.318,66c-.934,0-1,1.066-1,2s.066,2,1,2a2,2,0,0,0,0-4Zm0,2c-.256,0,0,.256,0,0s-.256,0,0,0,1-.256,1,0S359.575,68,359.318,68Zm0,0" transform="translate(-343.321 -63.571)" fill="#9f9f9f"></path></g></svg>